<?xml version="1.0" standalone="no"?>
<svg xmlns:xlink="http://www.w3.org/1999/xlink" id="wave" style="transform:rotate(0deg); transition: 0.3s" viewBox="0 0 1440 100" version="1.1" xmlns="http://www.w3.org/2000/svg"><defs><linearGradient id="sw-gradient-0" x1="0" x2="0" y1="1" y2="0"><stop stop-color="rgba(102, 95, 95, 1)" offset="0%"/><stop stop-color="rgba(130.147, 120.263, 120.263, 1)" offset="100%"/></linearGradient></defs><path style="transform:translate(0, 0px); opacity:1" fill="url(#sw-gradient-0)" d="M0,70L20,68.3C40,67,80,63,120,65C160,67,200,73,240,75C280,77,320,73,360,61.7C400,50,440,30,480,30C520,30,560,50,600,61.7C640,73,680,77,720,76.7C760,77,800,73,840,75C880,77,920,83,960,83.3C1000,83,1040,77,1080,73.3C1120,70,1160,70,1200,73.3C1240,77,1280,83,1320,80C1360,77,1400,63,1440,51.7C1480,40,1520,30,1560,35C1600,40,1640,60,1680,70C1720,80,1760,80,1800,81.7C1840,83,1880,87,1920,73.3C1960,60,2000,30,2040,21.7C2080,13,2120,27,2160,28.3C2200,30,2240,20,2280,28.3C2320,37,2360,63,2400,73.3C2440,83,2480,77,2520,71.7C2560,67,2600,63,2640,65C2680,67,2720,73,2760,70C2800,67,2840,53,2860,46.7L2880,40L2880,100L2860,100C2840,100,2800,100,2760,100C2720,100,2680,100,2640,100C2600,100,2560,100,2520,100C2480,100,2440,100,2400,100C2360,100,2320,100,2280,100C2240,100,2200,100,2160,100C2120,100,2080,100,2040,100C2000,100,1960,100,1920,100C1880,100,1840,100,1800,100C1760,100,1720,100,1680,100C1640,100,1600,100,1560,100C1520,100,1480,100,1440,100C1400,100,1360,100,1320,100C1280,100,1240,100,1200,100C1160,100,1120,100,1080,100C1040,100,1000,100,960,100C920,100,880,100,840,100C800,100,760,100,720,100C680,100,640,100,600,100C560,100,520,100,480,100C440,100,400,100,360,100C320,100,280,100,240,100C200,100,160,100,120,100C80,100,40,100,20,100L0,100Z"/></svg>